<svg xmlns="http://www.w3.org/2000/svg" viewBox="0 0 74.79 55.01"><defs><style>.cls-1,.cls-5{fill:none;}.cls-1,.cls-3,.cls-4,.cls-5{stroke:#231f20;stroke-miterlimit:10;}.cls-1,.cls-3,.cls-4{stroke-width:1.5px;}.cls-2,.cls-4{fill:#231f20;}.cls-3{fill:#fff;}.cls-5{stroke-width:2px;}</style></defs><g id="Layer_2" data-name="Layer 2"><g id="combined-arms-1"><path class="cls-1" d="M32.8,5.33A52.34,52.34,0,0,1,40,2.56a14.38,14.38,0,0,0,2.72-2"/><path class="cls-1" d="M44.35,2.43C50.13,2,54,4.84,54.7,5a22.59,22.59,0,0,0,3.87.08"/><path class="cls-1" d="M58.76,8c3.86,3.16,6.57,10.75,6.79,11.39s1.13,1.17,2.34,2.19"/><ellipse class="cls-2" cx="12.78" cy="5.26" rx="2.09" ry="2.25"/><path class="cls-1" d="M15.88,36s2.81-10.43,2-12c-.06-.12-1-2.58-2.66-3.34S5.34,17.33,3.46,14,.88,7.62,1.82,5.33C2.42,3.86,3.9,2.8,8.08,1.86a26.15,26.15,0,0,1,9.78-.17c3.83.57,7.26,3.13,8.59,3.28s2.19-.15,4.44-1.12"/><path class="cls-1" d="M17.44,4.7a2.17,2.17,0,0,1,2.77-.36c1.65,1,.66,3.33-1,4"/><path class="cls-1" d="M26.75,16.45s1.24,5.14.74,6.92c-.15.56-.66,2.11-1.28,4"/><path class="cls-1" d="M42.53,13.54s-2.93,2.6-3,5.52c0,1.87.93,5.47,1.64,7.82"/><path class="cls-3" d="M26.77,31.78c1.72,0,3.79,0,5.88-.16"/><path class="cls-4" d="M1.56,7.23c3.58,0,2.63-3.93,2.63-3.93a3.12,3.12,0,0,0-1.95,2"/><polyline class="cls-5" points="66.72 27.01 73.4 27.01 64.45 54.01 10.73 54.01 1.4 27.01 10.4 27.01 13.1 36.01"/><polyline class="cls-5" points="27 36.01 26.11 27.01 17.11 27.01 18.27 36.01"/><polyline class="cls-5" points="41.81 36.01 41.81 27.01 32.81 27.01 32.81 36.01"/><polyline class="cls-5" points="57.4 27.01 48.61 27.01 47.73 35.45"/><line class="cls-1" x1="66.11" y1="36.01" x2="70.3" y2="36.01"/><line class="cls-1" x1="4.37" y1="36.01" x2="46.38" y2="36.01"/><line class="cls-1" x1="60.28" y1="45.01" x2="67.55" y2="45.01"/><line class="cls-1" x1="7.66" y1="45.01" x2="43.15" y2="45.01"/><line class="cls-1" x1="15.65" y1="36.01" x2="17.79" y2="45.01"/><line class="cls-1" x1="29.97" y1="36.01" x2="30.56" y2="45.01"/><line class="cls-1" x1="44.7" y1="36.01" x2="44.61" y2="37.04"/><line class="cls-1" x1="37.4" y1="45.01" x2="37.4" y2="54.01"/><line class="cls-1" x1="23.85" y1="45.29" x2="24.95" y2="54.01"/><line class="cls-1" x1="50.35" y1="47.06" x2="48.99" y2="53.8"/><line class="cls-1" x1="62.76" y1="45.01" x2="59.78" y2="54.01"/><line class="cls-1" x1="11.61" y1="45.01" x2="14.65" y2="54.01"/><path class="cls-1" d="M57,25.86c6.76,6.77-13.8,8.62-15.14,14.71-.45,1-1.28,6.75,11,6.48S66.21,34.44,66.21,34.44a39.68,39.68,0,0,0-.38-10.37"/><line class="cls-1" x1="26.92" y1="8.54" x2="30.69" y2="7.44"/><line class="cls-1" x1="39.77" y1="6.34" x2="42.91" y2="3.85"/><line class="cls-1" x1="53.19" y1="7.31" x2="57.06" y2="7.86"/><line class="cls-1" x1="62.04" y1="20.06" x2="64.82" y2="23"/><line class="cls-1" x1="39.77" y1="9.7" x2="42.91" y2="7.22"/><line class="cls-1" x1="51.25" y1="9.72" x2="55.13" y2="10.26"/><line class="cls-1" x1="59.8" y1="21.89" x2="62.58" y2="24.84"/><line class="cls-3" x1="1.4" y1="27.01" x2="10.73" y2="54.01"/><path class="cls-1" d="M63.22,31.7s-.75,7.83-12.32,10.19"/></g></g></svg>