<svg xmlns="http://www.w3.org/2000/svg" viewBox="0 0 76 128.01"><defs><style>.cls-1,.cls-5,.cls-6,.cls-7{fill:none;}.cls-1,.cls-3,.cls-4,.cls-5,.cls-6,.cls-7{stroke:#231f20;stroke-miterlimit:10;}.cls-1,.cls-3,.cls-4{stroke-width:1.5px;}.cls-2,.cls-4{fill:#231f20;}.cls-3{fill:#fff;}.cls-5{stroke-width:2px;}.cls-6{stroke-width:2.5px;}.cls-7{stroke-width:4px;}</style></defs><g id="Layer_2" data-name="Layer 2"><g id="combined-arms-1"><path class="cls-1" d="M33.4,5.33a51.93,51.93,0,0,1,7.19-2.77,14.7,14.7,0,0,0,2.73-2"/><path class="cls-1" d="M44.94,2.43C50.72,2,54.57,4.84,55.29,5a22.67,22.67,0,0,0,3.87.08"/><path class="cls-1" d="M59.35,8c3.87,3.16,6.58,10.75,6.79,11.39s1.13,1.17,2.35,2.19"/><ellipse class="cls-2" cx="13.38" cy="5.26" rx="2.09" ry="2.25"/><path class="cls-1" d="M16.48,36s2.81-10.43,2-12c-.05-.12-1-2.58-2.65-3.34S5.93,17.33,4.06,14,1.48,7.62,2.41,5.33C3,3.86,4.5,2.8,8.67,1.86a26.21,26.21,0,0,1,9.79-.17C22.29,2.26,25.72,4.82,27,5s2.2-.15,4.44-1.12"/><path class="cls-1" d="M18,4.7a2.15,2.15,0,0,1,2.76-.36c1.66,1,.67,3.33-1,4"/><path class="cls-1" d="M27.35,16.45s1.24,5.14.74,6.92c-.15.56-.66,2.11-1.29,4"/><path class="cls-1" d="M43.13,13.54s-2.94,2.6-3,5.52c0,1.87.93,5.47,1.63,7.82"/><path class="cls-3" d="M27.37,31.78c1.71,0,3.79,0,5.88-.16"/><path class="cls-4" d="M2.16,7.23c3.58,0,2.63-3.93,2.63-3.93a3.09,3.09,0,0,0-1.95,2"/><polyline class="cls-5" points="67.31 27.01 74 27.01 65.05 54.01 11.33 54.01 2 27.01 11 27.01 13.69 36.01"/><polyline class="cls-5" points="27.59 36.01 26.7 27.01 17.7 27.01 18.86 36.01"/><polyline class="cls-5" points="42.41 36.01 42.41 27.01 33.41 27.01 33.41 36.01"/><polyline class="cls-5" points="58 27.01 49.2 27.01 48.33 35.45"/><line class="cls-1" x1="66.7" y1="36.01" x2="70.9" y2="36.01"/><line class="cls-1" x1="4.97" y1="36.01" x2="46.98" y2="36.01"/><line class="cls-1" x1="60.88" y1="45.01" x2="68.14" y2="45.01"/><line class="cls-1" x1="8.26" y1="45.01" x2="43.74" y2="45.01"/><line class="cls-1" x1="16.25" y1="36.01" x2="18.39" y2="45.01"/><line class="cls-1" x1="30.56" y1="36.01" x2="31.16" y2="45.01"/><line class="cls-1" x1="45.3" y1="36.01" x2="45.21" y2="37.04"/><line class="cls-1" x1="38" y1="45.01" x2="38" y2="54.01"/><line class="cls-1" x1="24.45" y1="45.29" x2="25.55" y2="54.01"/><line class="cls-1" x1="50.94" y1="47.06" x2="49.58" y2="53.8"/><line class="cls-1" x1="63.36" y1="45.01" x2="60.38" y2="54.01"/><line class="cls-1" x1="12.21" y1="45.01" x2="15.25" y2="54.01"/><path class="cls-1" d="M57.57,25.86c6.76,6.77-13.8,8.62-15.14,14.71-.45,1-1.28,6.75,11,6.48S66.81,34.44,66.81,34.44a39.68,39.68,0,0,0-.38-10.37"/><line class="cls-1" x1="27.52" y1="8.54" x2="31.29" y2="7.44"/><line class="cls-1" x1="40.36" y1="6.34" x2="43.51" y2="3.85"/><line class="cls-1" x1="53.79" y1="7.31" x2="57.66" y2="7.86"/><line class="cls-1" x1="62.64" y1="20.06" x2="65.42" y2="23"/><line class="cls-1" x1="40.36" y1="9.7" x2="43.51" y2="7.22"/><line class="cls-1" x1="51.85" y1="9.72" x2="55.72" y2="10.26"/><line class="cls-1" x1="60.4" y1="21.89" x2="63.18" y2="24.84"/><line class="cls-3" x1="2" y1="27.01" x2="11.33" y2="54.01"/><path class="cls-1" d="M63.82,31.7s-.76,7.83-12.32,10.19"/><line class="cls-1" x1="35.37" y1="64.81" x2="45.58" y2="63.13"/><path class="cls-1" d="M44.68,59.17H21.55s-7,4.19-6.39,9L30,65.69"/><line class="cls-6" x1="44.68" y1="55.02" x2="46.82" y2="67.79"/><path class="cls-2" d="M54.39,107.86c3.93-.41,6.31-.61,7.82-5l-4-.37a60.25,60.25,0,0,0,4.78-6,104.61,104.61,0,0,0,6-10.14s-.89,7.81-.89,12-.07,8.4-.07,8.4l-2.8-2.67a15.22,15.22,0,0,1-12.38,9.58"/><polyline class="cls-1" points="53.99 58.62 55.57 58.39 55.91 60.86 54.43 61.05"/><path class="cls-1" d="M45.49,68.39s-.73.59-1.72-.86c-2.43-3.16-8.2-2.25-8.2-2.25l-1.32-1.63c-2.94.36-6.83,4.59-6.83,4.59s-3.23,3.38-3.88,3.84c-.36.29.11,1.25-.68,2.16S19.44,77,19.18,78.4a6.31,6.31,0,0,0,3,5.3c.32.11,2.38-1.64,3.33-2.22s2.24.16,2.92.57A2.07,2.07,0,0,1,29.17,85a3.9,3.9,0,0,1-4.51.74c-.72.07.78,2.19,2.91,2.3"/><path class="cls-1" d="M24.85,89.81c-2.67-2.93-14.16-1.21-14.16-1.21"/><path class="cls-1" d="M24.22,89.81a10.19,10.19,0,0,1,4.1-2c2.81-.78,5.25-.11,7.41-1.38"/><path class="cls-1" d="M10.17,95.67C8.23,95.09,2.65,94,2.65,94"/><path class="cls-1" d="M48.08,57.55a7,7,0,0,1,2.64-.2c1.13.23,2.62.45,3.14,1.15a13.49,13.49,0,0,1,.2,6.37,18.86,18.86,0,0,0,2,2.52l.16.11a9.92,9.92,0,0,0,3.48,2.1A1.74,1.74,0,0,1,59,71a16.39,16.39,0,0,0,3.59,1.39,2.16,2.16,0,0,1-1.1,1.5L61.2,74a5.8,5.8,0,0,1,1.21,4.26,17.44,17.44,0,0,1-3.8,7c-2.93,3.25-4,4.35-4.39,5.62-.1.31-.2,1.77-.44,4"/><path class="cls-1" d="M48.82,58.62s-.72-1.8-.85-2c-1.14-.65-2.91.68-2.91.68l1.45,9.51-.35-2.95s.23,2.19,2.77,1.56c1,0,1.67,7.64,3.28,9.44.86,1.3,2.46,2.54,2.29,2.69a6.59,6.59,0,0,0-3.15,2c-.8.89-.53,1-1.19,2.46"/><path class="cls-1" d="M9.87,95.61A4,4,0,0,1,12.6,97.9l.92-1.38a11.37,11.37,0,0,1,2.62,2.88,8,8,0,0,0,1.13-1.56l.13-.19a8.91,8.91,0,0,1,1.78.53"/><path class="cls-1" d="M11.42,89c-1.67-2.34-8.89-1-8.89-1"/><line class="cls-1" x1="19.01" y1="79.58" x2="21.27" y2="79.84"/><path class="cls-1" d="M45.15,68.66l-1,1s2.88,3.66,4.74,4.48A12,12,0,0,1,47.29,76c4.51,4.27,1.86,7.28,3.57,8.86a5.68,5.68,0,0,1-4.68.11s-1.1,3.16-3,4.16C43.39,87,40.88,85,40.88,85"/><path class="cls-1" d="M34.69,83.7A7.64,7.64,0,0,1,35,89.54c3.74.27,4.66-2.44,4.66-2.44"/><path class="cls-1" d="M39.68,70s2.45,4.37,3.85,5a5,5,0,0,1-1.63,1.44s1.38,3.77,3,4.32a7.24,7.24,0,0,1-2.21,1.75"/><path class="cls-1" d="M34.69,74.85s1.37,3,2.65,4.1a10.79,10.79,0,0,1-2.24,2.12"/><rect class="cls-7" x="2" y="54.01" width="72" height="72"/><path class="cls-1" d="M30.18,70.68s1.54-3,3.46-1.54.19,4.15.19,4.15"/><path class="cls-1" d="M53.83,94.31a16.83,16.83,0,0,0,.94,7.54c-1.41-.14-4.28-2.11-4.28-2.11l-2,5.78c-2.41-1.12-2.66-5-2.66-5l-2.36,4.16-4.22-3.46-.42,4.28c-2.68.1-5-4.23-5-4.23l-.36,3.46c-2.18-.48-5.06-3.57-5.06-3.57a21.79,21.79,0,0,1-3.32,2.71s-.51-3.51-3.46-4.6c0,0-1.24-.6-2.42-1.11"/><polyline class="cls-1" points="28.62 73.58 25.87 74.43 26.4 76.13"/><path class="cls-2" d="M50.44,99.7l-2,5.75c-2.41-1.11-2.66-4.93-2.66-4.93l-2.36,4.13-4.22-3.43-.43,4.25c-2.67.1-5-4.21-5-4.21l-.35,3.45c-2.18-.48-5.06-3.55-5.06-3.55s-1.74,1.49-2.76,2.31c1.82,2.65,2.67,6.1,2.06,8-1.15,4.81-4,10.16-6.23,14.39l24.15.07c5.23-8.25,7.12-17.25,8.2-24.41C52.49,100.91,50.44,99.7,50.44,99.7Zm-16,6.26V106a1,1,0,0,0,2,0v-.11l1.35.19a2.37,2.37,0,0,1-4.72,0Zm-4.06,14.86a2.3,2.3,0,0,1-2.36-2.16l1.34-.15v.08a1,1,0,0,0,2,0v-.11l1.35.19A2.32,2.32,0,0,1,30.41,120.82Zm1.67-8a2.31,2.31,0,0,1-2.36-2.17l1.34-.14v.08a1,1,0,0,0,2,0s0-.07,0-.11l1.35.19A2.32,2.32,0,0,1,32.08,112.78Zm4.67,4.14a2.3,2.3,0,0,1-2.36-2.16l1.35-.15s0,.06,0,.08a1,1,0,0,0,2,0,.34.34,0,0,0,0-.1l1.35.18A2.3,2.3,0,0,1,36.75,116.92Zm2.61-7.27,1.34-.14v.07a1,1,0,0,0,2,0v-.1l1.34.18a2.36,2.36,0,0,1-4.71,0Zm3.21,11.17a2.3,2.3,0,0,1-2.36-2.16l1.35-.15a.22.22,0,0,0,0,.08,1,1,0,0,0,2,0,.41.41,0,0,0,0-.11l1.35.19A2.3,2.3,0,0,1,42.57,120.82Zm3.83-4.38A2.3,2.3,0,0,1,44,114.28l1.35-.15v.08a1,1,0,0,0,2,0,.34.34,0,0,0,0-.1l1.35.18A2.3,2.3,0,0,1,46.4,116.44Zm2-8A2.3,2.3,0,0,1,46,106.26l1.34-.14v.08a1,1,0,0,0,2,0v-.11l1.35.18A2.31,2.31,0,0,1,48.38,108.42Z"/><path class="cls-2" d="M62.9,118.19c-5.93-1.15-6.82,1.49-12.42,1.28l-2.3,5.81c0,.33,21.2.13,21.2.13S68.83,119.33,62.9,118.19Zm-8.46,6A2.31,2.31,0,0,1,52.08,122l1.34-.14v.08a1,1,0,0,0,2,0v-.11l1.34.19A2.3,2.3,0,0,1,54.44,124.14Zm7.75,0A2.31,2.31,0,0,1,59.83,122l1.35-.14a.19.19,0,0,0,0,.08,1,1,0,0,0,2,0s0-.07,0-.11l1.35.19A2.3,2.3,0,0,1,62.19,124.14Z"/><path class="cls-2" d="M25,106.43l-2.12.95a8.44,8.44,0,0,0-.69-2.64c-7,.41-11.7,2.64-13.85,6.45-4,7.82,1.35,14.4,1.35,14.4l10.36-.1,3.37-6.57s-4.45-2.19-3.35-5c1.19-2.19,5.65-1.93,5.65-1.93C26.18,110.08,25.86,109,25,106.43ZM12.8,112.09a.19.19,0,0,0,0,.08,1,1,0,0,0,2,0,.37.37,0,0,0,0-.11l1.35.18a2.37,2.37,0,0,1-4.72,0Zm1,12.18a2.3,2.3,0,0,1-2.36-2.17L12.8,122a.25.25,0,0,0,0,.08,1,1,0,0,0,2,0,.34.34,0,0,0,0-.1l1.35.18A2.3,2.3,0,0,1,13.81,124.27Zm2.64-5.09A2.31,2.31,0,0,1,14.09,117l1.35-.15a.22.22,0,0,0,0,.08,1,1,0,0,0,2,0,.41.41,0,0,0,0-.11l1.35.19A2.3,2.3,0,0,1,16.45,119.18Z"/></g></g></svg>