<svg xmlns="http://www.w3.org/2000/svg" viewBox="0 0 76 76"><defs><style>.cls-1,.cls-2,.cls-4{fill:none;stroke:#D5AC4A;stroke-miterlimit:10;}.cls-1{stroke-width:1.5px;}.cls-2{stroke-width:2.5px;}.cls-3{fill:#D5AC4A;}.cls-4{stroke-width:4px;}</style></defs><g id="Layer_2" data-name="Layer 2"><g id="combined-arms-1"><line class="cls-1" x1="35.37" y1="12.8" x2="45.58" y2="11.12"/><path class="cls-1" d="M44.68,7.16H21.55s-7,4.19-6.39,9L30,13.68"/><line class="cls-2" x1="44.68" y1="3.01" x2="46.82" y2="15.78"/><path class="cls-3" d="M54.39,55.85c3.93-.41,6.31-.61,7.82-5l-4-.37a60.25,60.25,0,0,0,4.78-6,104.61,104.61,0,0,0,6-10.14s-.89,7.81-.89,12-.07,8.41-.07,8.41l-2.8-2.68a15.22,15.22,0,0,1-12.38,9.58"/><polyline class="cls-1" points="53.99 6.61 55.57 6.38 55.91 8.85 54.43 9.04"/><path class="cls-1" d="M45.49,16.38s-.73.59-1.72-.86c-2.43-3.16-8.2-2.25-8.2-2.25l-1.32-1.63c-2.94.36-6.83,4.59-6.83,4.59s-3.23,3.39-3.88,3.84c-.36.29.11,1.25-.68,2.16s-3.42,2.71-3.68,4.16a6.3,6.3,0,0,0,3,5.3c.32.11,2.38-1.64,3.33-2.22s2.24.16,2.92.57A2.07,2.07,0,0,1,29.17,33a3.9,3.9,0,0,1-4.51.74c-.72.07.78,2.19,2.91,2.3"/><path class="cls-1" d="M24.85,37.8c-2.67-2.93-14.16-1.21-14.16-1.21"/><path class="cls-1" d="M24.22,37.8a10.19,10.19,0,0,1,4.1-2c2.81-.78,5.25-.11,7.41-1.38"/><path class="cls-1" d="M10.17,43.66c-1.94-.58-7.52-1.72-7.52-1.72"/><path class="cls-1" d="M48.08,5.54a7,7,0,0,1,2.64-.2c1.13.23,2.62.45,3.14,1.15a13.49,13.49,0,0,1,.2,6.37,18.86,18.86,0,0,0,2,2.52l.16.11a9.92,9.92,0,0,0,3.48,2.1A1.74,1.74,0,0,1,59,19a16.39,16.39,0,0,0,3.59,1.39,2.16,2.16,0,0,1-1.1,1.5L61.2,22a5.8,5.8,0,0,1,1.21,4.26,17.44,17.44,0,0,1-3.8,7c-2.93,3.25-4,4.35-4.39,5.62-.1.31-.2,1.77-.44,4"/><path class="cls-1" d="M48.82,6.61s-.72-1.8-.85-2c-1.14-.65-2.91.68-2.91.68l1.45,9.51-.35-2.95s.23,2.19,2.77,1.56c1,0,1.67,7.64,3.28,9.44.86,1.3,2.46,2.54,2.29,2.69a6.59,6.59,0,0,0-3.15,2c-.8.89-.53,1-1.19,2.46"/><path class="cls-1" d="M9.87,43.6a4,4,0,0,1,2.73,2.29l.92-1.38a11.37,11.37,0,0,1,2.62,2.88,8,8,0,0,0,1.13-1.56l.13-.19a8.91,8.91,0,0,1,1.78.53"/><path class="cls-1" d="M11.42,37c-1.67-2.35-8.89-1-8.89-1"/><line class="cls-1" x1="19.01" y1="27.57" x2="21.27" y2="27.83"/><path class="cls-1" d="M45.15,16.65l-1,1.05s2.88,3.66,4.74,4.48A12,12,0,0,1,47.29,24c4.51,4.27,1.86,7.28,3.57,8.86a5.68,5.68,0,0,1-4.68.11s-1.1,3.16-3,4.16C43.39,35,40.88,33,40.88,33"/><path class="cls-1" d="M34.69,31.69A7.64,7.64,0,0,1,35,37.53c3.74.27,4.66-2.44,4.66-2.44"/><path class="cls-1" d="M39.68,18s2.45,4.37,3.85,5a5,5,0,0,1-1.63,1.44s1.38,3.77,3,4.32a7.24,7.24,0,0,1-2.21,1.75"/><path class="cls-1" d="M34.69,22.84s1.37,3,2.65,4.1a10.79,10.79,0,0,1-2.24,2.12"/><rect class="cls-4" x="2" y="2" width="72" height="72"/><path class="cls-1" d="M30.18,18.67s1.54-3,3.46-1.53.19,4.14.19,4.14"/><path class="cls-1" d="M53.83,42.3a16.83,16.83,0,0,0,.94,7.54c-1.41-.14-4.28-2.11-4.28-2.11l-2,5.78c-2.41-1.12-2.66-5-2.66-5l-2.36,4.16-4.22-3.46-.42,4.28c-2.68.1-5-4.23-5-4.23l-.36,3.46c-2.18-.48-5.06-3.57-5.06-3.57a21.79,21.79,0,0,1-3.32,2.71s-.51-3.51-3.46-4.6c0,0-1.24-.6-2.42-1.11"/><polyline class="cls-1" points="28.62 21.57 25.87 22.42 26.4 24.12"/><path class="cls-3" d="M50.44,47.69l-2,5.75c-2.41-1.11-2.66-4.93-2.66-4.93l-2.36,4.13-4.22-3.43-.43,4.25c-2.67.1-5-4.21-5-4.21l-.35,3.45c-2.18-.48-5.06-3.55-5.06-3.55s-1.74,1.49-2.76,2.31c1.82,2.65,2.67,6.1,2.06,8-1.15,4.81-4,10.16-6.23,14.39l24.15.07c5.23-8.25,7.12-17.25,8.2-24.41C52.49,48.9,50.44,47.69,50.44,47.69ZM34.47,54V54a1,1,0,0,0,2,0v-.11l1.35.19a2.37,2.37,0,0,1-4.72,0ZM30.41,68.81a2.3,2.3,0,0,1-2.36-2.16l1.34-.15v.08a1,1,0,0,0,2,0v-.11l1.35.19A2.32,2.32,0,0,1,30.41,68.81Zm1.67-8a2.31,2.31,0,0,1-2.36-2.17l1.34-.14v.08a1,1,0,0,0,2,0s0-.07,0-.11l1.35.19A2.32,2.32,0,0,1,32.08,60.77Zm4.67,4.14a2.3,2.3,0,0,1-2.36-2.16l1.35-.15s0,.06,0,.08a1,1,0,0,0,2,0,.34.34,0,0,0,0-.1l1.35.18A2.29,2.29,0,0,1,36.75,64.91Zm2.61-7.27,1.34-.14v.07a1,1,0,0,0,2,0v-.1l1.34.18a2.36,2.36,0,0,1-4.71,0Zm3.21,11.17a2.3,2.3,0,0,1-2.36-2.16l1.35-.15a.22.22,0,0,0,0,.08,1,1,0,0,0,2,0,.41.41,0,0,0,0-.11l1.35.19A2.3,2.3,0,0,1,42.57,68.81Zm3.83-4.38A2.3,2.3,0,0,1,44,62.27l1.35-.15v.08a1,1,0,0,0,2,0,.34.34,0,0,0,0-.1l1.35.18A2.3,2.3,0,0,1,46.4,64.43Zm2-8A2.3,2.3,0,0,1,46,54.25l1.34-.14v.08a1,1,0,0,0,2,0v-.11l1.35.18A2.31,2.31,0,0,1,48.38,56.41Z"/><path class="cls-3" d="M62.9,66.18C57,65,56.08,67.67,50.48,67.46l-2.3,5.81c0,.33,21.2.13,21.2.13S68.83,67.32,62.9,66.18Zm-8.46,5.95A2.31,2.31,0,0,1,52.08,70l1.34-.14v.08a1,1,0,0,0,2,0v-.11l1.34.19A2.3,2.3,0,0,1,54.44,72.13Zm7.75,0A2.31,2.31,0,0,1,59.83,70l1.35-.14a.19.19,0,0,0,0,.08,1,1,0,0,0,2,0s0-.07,0-.11l1.35.19A2.3,2.3,0,0,1,62.19,72.13Z"/><path class="cls-3" d="M25,54.42l-2.12.95a8.44,8.44,0,0,0-.69-2.64c-7,.41-11.7,2.64-13.85,6.45-4,7.82,1.35,14.4,1.35,14.4L20,73.48l3.37-6.57s-4.45-2.19-3.35-5c1.19-2.19,5.65-1.93,5.65-1.93C26.18,58.07,25.86,57,25,54.42ZM12.8,60.08a.19.19,0,0,0,0,.08,1,1,0,0,0,2,0,.37.37,0,0,0,0-.11l1.35.18a2.37,2.37,0,0,1-4.72,0Zm1,12.18a2.3,2.3,0,0,1-2.36-2.17L12.8,70a.17.17,0,0,0,0,.07,1,1,0,0,0,2,0,.34.34,0,0,0,0-.1l1.35.18A2.3,2.3,0,0,1,13.81,72.26Zm2.64-5.09A2.31,2.31,0,0,1,14.09,65l1.35-.15a.22.22,0,0,0,0,.08,1,1,0,0,0,2,0,.45.45,0,0,0,0-.11l1.35.19A2.3,2.3,0,0,1,16.45,67.17Z"/></g></g></svg>