<svg xmlns="http://www.w3.org/2000/svg" viewBox="0 0 76 76"><defs><style>.cls-1{fill:#fff;}.cls-1,.cls-2,.cls-3,.cls-4{stroke:#D5AC4A;stroke-miterlimit:10;}.cls-1,.cls-2{stroke-width:1.5px;}.cls-2,.cls-3,.cls-4,.cls-5{fill:none;}.cls-3{stroke-width:4px;}.cls-4{stroke-width:2px;}</style></defs><g id="Layer_2" data-name="Layer 2"><g id="coa-components"><line class="cls-1" x1="63.94" y1="38.66" x2="73.65" y2="38.66"/><line class="cls-1" x1="3.87" y1="38.66" x2="14.26" y2="38.66"/><line class="cls-2" x1="73.21" y1="42.21" x2="69.08" y2="42.21"/><line class="cls-2" x1="7.54" y1="42.21" x2="3.07" y2="42.21"/><line class="cls-2" x1="10.13" y1="69.22" x2="3.79" y2="69.22"/><line class="cls-2" x1="7.54" y1="65.39" x2="3.99" y2="65.39"/><line class="cls-2" x1="73.34" y1="65.79" x2="69.34" y2="65.79"/><line class="cls-2" x1="73.34" y1="68.74" x2="67.34" y2="68.74"/><rect class="cls-3" x="2" y="2" width="72" height="72"/><path class="cls-4" d="M52.91,45.29A46.43,46.43,0,0,0,67.15,28.5c3.61-7-6.62-13.5-9.79-9.92C56.52,8.12,48,10.75,45.71,12c-6.41-8.18-13.63,0-13.63,0s-10.8-3.87-11.64,6.59C17.28,15,7,21.45,10.65,28.5A46.12,46.12,0,0,0,24.81,45.23"/><path class="cls-5" d="M13.23,53.34S12,55,19.2,59.09c15.46,7.9,18.85,5.63,32.28,3s16.85-9.88,16.85-9.88-5.26-5.88-30.64-5.53S13.23,53.34,13.23,53.34Z"/><path class="cls-2" d="M49.4,45.34a34.92,34.92,0,0,1,10.94,5.85s2.66,2.57-1.67,3.74"/><path class="cls-2" d="M19.38,54.93s-4.45-1-3-3.41c.62-1,4.93-4,11.19-5.92"/><path class="cls-4" d="M8,51.9s0,13.52,30.4,13.49"/><path class="cls-4" d="M38.32,65.39c30.76,0,30.76-13.5,30.76-13.5"/><path class="cls-4" d="M49.75,44.77a65.68,65.68,0,0,1,7.66,1.53s8.51,2.12,11.18,4.84-6.65,4.23-9.75,3.68c-4.61,4-13.39,2.48-13.39,2.48S38.28,60,32,57.19c-2.08.3-8.63,1.62-13.24-2.41-3.1.55-13-.92-10.29-3.64S19.68,46.3,19.68,46.3a62.83,62.83,0,0,1,7.48-1.43"/><line class="cls-2" x1="20.44" y1="18.58" x2="21.38" y2="20.11"/><line class="cls-2" x1="32.61" y1="14.19" x2="32.22" y2="11.99"/><line class="cls-2" x1="45.13" y1="13.83" x2="45.53" y2="11.99"/><line class="cls-2" x1="56.44" y1="20.11" x2="57.36" y2="18.58"/><line class="cls-2" x1="27.34" y1="28.82" x2="22.9" y2="22.51"/><line class="cls-2" x1="35.13" y1="24.86" x2="33.35" y2="17.45"/><line class="cls-2" x1="42.33" y1="24.86" x2="44.67" y2="16.61"/><line class="cls-2" x1="49.14" y1="28.19" x2="54.46" y2="22.12"/><path class="cls-2" d="M12.25,26.31S14.59,19.42,19,21"/><path class="cls-2" d="M23.37,19s.37-7.31,7.17-4.29"/><path class="cls-2" d="M35,13.35s4.61-4.44,7.86,0"/><path class="cls-2" d="M47.51,14.11s6.67-2.59,7,4.47"/><path class="cls-2" d="M59.57,21.1S63.84,20,65,26"/><line class="cls-2" x1="20.39" y1="53.29" x2="18.79" y2="55.59"/><line class="cls-2" x1="25.08" y1="53.29" x2="22.49" y2="57"/><line class="cls-2" x1="29.63" y1="53.29" x2="26.53" y2="57.74"/><line class="cls-2" x1="34.37" y1="53.29" x2="31.36" y2="57.6"/><line class="cls-2" x1="39" y1="53.29" x2="35.55" y2="58.23"/><line class="cls-2" x1="43.69" y1="53.29" x2="40.11" y2="58.42"/><line class="cls-2" x1="48.24" y1="53.29" x2="45.34" y2="57.54"/><line class="cls-2" x1="53.33" y1="53.11" x2="50.1" y2="57.74"/><line class="cls-2" x1="57.96" y1="53.11" x2="55.29" y2="56.94"/><circle class="cls-2" cx="38.44" cy="38.66" r="10.7"/><path class="cls-2" d="M38.44,65.39c-19.57.65-20-7.48-20-7.48"/><path class="cls-2" d="M38.32,65.39c19.8.65,20.52-7.81,20.52-7.81"/><path class="cls-2" d="M44.84,59.75s.42,5.64-6.4,5.64-6.15-5.82-6.15-5.82"/></g></g></svg>