<svg xmlns="http://www.w3.org/2000/svg" viewBox="0 0 63.04 59.04"><defs><style>.cls-1,.cls-2,.cls-3{fill:none;}.cls-1,.cls-3{stroke:#231f20;stroke-miterlimit:10;}.cls-1{stroke-width:2px;}.cls-3{stroke-width:1.5px;}</style></defs><g id="Layer_2" data-name="Layer 2"><g id="coa-components"><path class="cls-1" d="M45.87,37.94A46.5,46.5,0,0,0,60.12,21.15c3.61-7.06-6.63-13.51-9.8-9.92C49.49.77,41,3.4,38.67,4.63,32.26-3.54,25,4.63,25,4.63S14.24.77,13.41,11.23C10.24,7.64,0,14.09,3.61,21.15A46.11,46.11,0,0,0,17.78,37.87"/><path class="cls-2" d="M6.19,46s-1.23,1.68,6,5.74c15.45,7.9,18.84,5.63,32.28,3.06S61.29,44.9,61.29,44.9,56,39,30.66,39.38,6.19,46,6.19,46Z"/><path class="cls-3" d="M42.36,38a34.82,34.82,0,0,1,11,5.84s2.65,2.58-1.68,3.74"/><path class="cls-3" d="M12.35,47.57s-4.45-1-3-3.4c.62-1,4.92-4,11.19-5.93"/><path class="cls-1" d="M1,44.55S1,58.07,31.4,58"/><path class="cls-1" d="M31.29,58C62,58.07,62,44.53,62,44.53"/><path class="cls-1" d="M42.71,37.42A66.25,66.25,0,0,1,50.38,39s8.5,2.11,11.17,4.83S54.91,48,51.81,47.46c-4.62,4-13.4,2.49-13.4,2.49S31.24,52.67,25,49.84c-2.07.3-8.63,1.62-13.24-2.42C8.65,48-1.2,46.51,1.47,43.78S12.64,39,12.64,39a64.43,64.43,0,0,1,7.48-1.44"/><line class="cls-3" x1="13.41" y1="11.23" x2="14.35" y2="12.76"/><line class="cls-3" x1="25.58" y1="6.84" x2="25.18" y2="4.63"/><line class="cls-3" x1="38.1" y1="6.47" x2="38.49" y2="4.63"/><line class="cls-3" x1="49.41" y1="12.76" x2="50.32" y2="11.23"/><line class="cls-3" x1="20.3" y1="21.46" x2="15.87" y2="15.16"/><line class="cls-3" x1="28.1" y1="17.5" x2="26.32" y2="10.1"/><line class="cls-3" x1="35.3" y1="17.5" x2="37.63" y2="9.25"/><line class="cls-3" x1="42.1" y1="20.83" x2="47.42" y2="14.76"/><path class="cls-3" d="M5.22,19S7.55,12.06,12,13.6"/><path class="cls-3" d="M16.34,11.63s.37-7.31,7.16-4.29"/><path class="cls-3" d="M27.93,6s4.62-4.45,7.87,0"/><path class="cls-3" d="M40.48,6.76s6.66-2.6,6.94,4.47"/><path class="cls-3" d="M52.53,13.74s4.28-1.13,5.47,4.94"/><line class="cls-3" x1="13.35" y1="45.94" x2="11.75" y2="48.23"/><line class="cls-3" x1="18.04" y1="45.94" x2="15.46" y2="49.65"/><line class="cls-3" x1="22.6" y1="45.94" x2="19.49" y2="50.39"/><line class="cls-3" x1="27.33" y1="45.94" x2="24.33" y2="50.24"/><line class="cls-3" x1="31.96" y1="45.94" x2="28.52" y2="50.87"/><line class="cls-3" x1="36.65" y1="45.94" x2="33.07" y2="51.07"/><line class="cls-3" x1="41.21" y1="45.94" x2="38.3" y2="50.19"/><line class="cls-3" x1="46.3" y1="45.76" x2="43.07" y2="50.39"/><line class="cls-3" x1="50.93" y1="45.76" x2="48.26" y2="49.59"/><circle class="cls-3" cx="31.4" cy="31.3" r="10.7"/><path class="cls-3" d="M31.4,58c-19.56.65-20-7.49-20-7.49"/><path class="cls-3" d="M31.29,58c19.79.65,20.52-7.82,20.52-7.82"/><path class="cls-3" d="M37.8,52.4S38.22,58,31.4,58s-6.14-5.83-6.14-5.83"/></g></g></svg>