<svg xmlns="http://www.w3.org/2000/svg" viewBox="0 0 441.17 128.01"><defs><style>.cls-1{fill:#fff;}</style></defs><g id="Layer_2" data-name="Layer 2"><g id="Layer_1-2" data-name="Layer 1"><path class="cls-1" d="M33.73,6l-.67-1.34A39.15,39.15,0,0,1,39.3,2.21c.44-.14.82-.26,1-.33A14,14,0,0,0,42.84,0l1,1.15a14.72,14.72,0,0,1-2.89,2.09,10.5,10.5,0,0,1-1.17.4A38.93,38.93,0,0,0,33.73,6Z"/><path class="cls-1" d="M57.26,5.84a12.68,12.68,0,0,1-2.11-.12,4.38,4.38,0,0,1-1-.45A16.88,16.88,0,0,0,45,3.18l-.1-1.5a18.61,18.61,0,0,1,9.9,2.25,6.78,6.78,0,0,0,.67.32,24.28,24.28,0,0,0,3.68.06l0,1.5Z"/><path class="cls-1" d="M68,22.1l-.93-.75c-.82-.64-1.42-1.1-1.64-1.77,0-.08-2.75-7.94-6.55-11l.95-1.16c4.19,3.43,7,11.66,7,11.74A4.27,4.27,0,0,0,68,20.17L69,21Z"/><ellipse class="cls-1" cx="13.38" cy="5.26" rx="2.09" ry="2.25"/><path class="cls-1" d="M17.2,36.2l-1.45-.39c1.3-4.82,2.47-10.57,2.09-11.45a6,6,0,0,0-2.3-3c-.29-.13-.8-.33-1.46-.59-3.15-1.21-9-3.46-10.68-6.4C1.32,10.68.74,7.45,1.72,5c.77-1.89,2.68-3,6.79-3.91A27.1,27.1,0,0,1,18.57,1a21.64,21.64,0,0,1,6.48,2.37,10.79,10.79,0,0,0,2.08.91c1.12.12,1.82-.1,4.05-1.07l.6,1.38c-2.29,1-3.3,1.35-4.82,1.18a9.51,9.51,0,0,1-2.59-1.06,20.57,20.57,0,0,0-6-2.23,25.86,25.86,0,0,0-9.51.16c-4.35,1-5.33,2-5.73,3-.81,2-.25,4.74,1.6,8,1.4,2.47,7.14,4.68,9.91,5.75.7.26,1.25.48,1.56.62,1.64.77,2.65,2.85,3,3.71C20,25.37,17.88,33.69,17.2,36.2Z"/><path class="cls-1" d="M20.08,9l-.55-1.4A2.24,2.24,0,0,0,20.9,5.87.86.86,0,0,0,20.43,5a1.39,1.39,0,0,0-1.82.2l-1.14-1a2.9,2.9,0,0,1,3.71-.52A2.37,2.37,0,0,1,22.4,6,3.75,3.75,0,0,1,20.08,9Z"/><path class="cls-1" d="M27.51,27.58l-1.42-.48c.72-2.13,1.15-3.45,1.28-3.93.32-1.16-.29-4.63-.75-6.55l1.45-.35c.14.55,1.28,5.39.74,7.3C28.67,24.08,28.25,25.39,27.51,27.58Z"/><path class="cls-1" d="M41,27.09c-.78-2.61-1.7-6.13-1.66-8,.07-3.21,3.12-5.94,3.25-6.06l1,1.13s-2.69,2.42-2.75,5a31.13,31.13,0,0,0,1.6,7.59Z"/><path class="cls-1" d="M27.37,31.78c1.71,0,3.79,0,5.88-.16"/><path class="cls-1" d="M28.71,32.54H27.35l0-1.5c2.09,0,4,0,5.8-.16l.13,1.49C31.88,32.48,30.33,32.54,28.71,32.54Z"/><path class="cls-1" d="M2.16,7.23c3.58,0,2.63-3.93,2.63-3.93a3.09,3.09,0,0,0-1.95,2"/><path class="cls-1" d="M2.16,8V6.48a1.88,1.88,0,0,0,1.58-.59,2.39,2.39,0,0,0,.41-1.36,1.71,1.71,0,0,0-.58.9L2.11,5.09A3.87,3.87,0,0,1,4.55,2.58l.78-.25.19.79a4.81,4.81,0,0,1-.6,3.69A3.3,3.3,0,0,1,2.16,8Z"/><polygon class="cls-1" points="65.77 55.01 10.62 55.01 0.6 26.01 11.74 26.01 14.65 35.72 12.73 36.3 10.26 28.01 3.4 28.01 12.04 53.01 64.33 53.01 72.61 28.01 67.31 28.01 67.31 26.01 75.39 26.01 65.77 55.01"/><polygon class="cls-1" points="17.87 36.14 16.57 26.01 27.61 26.01 28.59 35.91 26.6 36.11 25.8 28.01 18.84 28.01 19.85 35.88 17.87 36.14"/><polygon class="cls-1" points="43.41 36.01 41.41 36.01 41.41 28.01 34.41 28.01 34.41 36.01 32.41 36.01 32.41 26.01 43.41 26.01 43.41 36.01"/><polygon class="cls-1" points="49.32 35.55 47.33 35.34 48.3 26.01 58 26.01 58 28.01 50.11 28.01 49.32 35.55"/><rect class="cls-1" x="66.7" y="35.26" width="4.2" height="1.5"/><rect class="cls-1" x="4.97" y="35.26" width="42.01" height="1.5"/><rect class="cls-1" x="60.88" y="44.26" width="7.26" height="1.5"/><rect class="cls-1" x="8.26" y="44.26" width="35.49" height="1.5"/><rect class="cls-1" x="16.57" y="35.88" width="1.5" height="9.25" transform="translate(-8.9 5.1) rotate(-13.37)"/><rect class="cls-1" x="30.11" y="36" width="1.5" height="9.02" transform="translate(-2.6 2.12) rotate(-3.78)"/><rect class="cls-1" x="44.74" y="35.77" width="1.03" height="1.5" transform="translate(4.92 78.41) rotate(-84.99)"/><rect class="cls-1" x="37.25" y="45.01" width="1.5" height="9"/><rect class="cls-1" x="24.25" y="45.26" width="1.5" height="8.79" transform="translate(-6.02 3.52) rotate(-7.2)"/><rect class="cls-1" x="46.83" y="49.68" width="6.88" height="1.5" transform="translate(-9.12 89.72) rotate(-78.59)"/><rect class="cls-1" x="57.13" y="48.76" width="9.48" height="1.5" transform="matrix(0.31, -0.95, 0.95, 0.31, -4.56, 92.71)"/><rect class="cls-1" x="12.98" y="44.76" width="1.5" height="9.5" transform="translate(-15.12 7) rotate(-18.66)"/><path class="cls-1" d="M52.62,47.81c-5.37,0-8.87-1.19-10.39-3.54a4.48,4.48,0,0,1-.52-3.94c.71-2.93,5-4.83,9.06-6.66,3.47-1.55,7-3.15,7.38-5,.13-.69-.23-1.45-1.11-2.33l1.06-1.06c1.23,1.24,1.75,2.47,1.53,3.66-.48,2.58-4.25,4.26-8.25,6.05-3.62,1.62-7.73,3.45-8.22,5.69l0,.16a3,3,0,0,0,.38,2.57c.89,1.37,3.35,3,9.94,2.84C64.93,46.05,66,34.85,66.06,34.37a39.14,39.14,0,0,0-.37-10.18l1.48-.25a39.54,39.54,0,0,1,.38,10.59c0,.1-1.26,13-14.08,13.27Z"/><rect class="cls-1" x="27.44" y="7.24" width="3.93" height="1.5" transform="translate(-1.06 8.59) rotate(-16.33)"/><rect class="cls-1" x="39.93" y="4.34" width="4.01" height="1.5" transform="translate(5.86 27.08) rotate(-38.29)"/><rect class="cls-1" x="54.97" y="5.63" width="1.5" height="3.91" transform="translate(40.46 61.71) rotate(-82)"/><rect class="cls-1" x="63.28" y="19.5" width="1.5" height="4.05" transform="translate(2.68 49.81) rotate(-43.33)"/><rect class="cls-1" x="39.93" y="7.71" width="4.01" height="1.5" transform="translate(3.78 27.8) rotate(-38.29)"/><rect class="cls-1" x="53.04" y="8.04" width="1.5" height="3.91" transform="translate(36.41 61.86) rotate(-82)"/><rect class="cls-1" x="61.04" y="21.34" width="1.5" height="4.05" transform="matrix(0.73, -0.69, 0.69, 0.73, 0.82, 48.78)"/><line class="cls-1" x1="2" y1="27.01" x2="11.33" y2="54.01"/><rect class="cls-1" x="5.91" y="26.23" width="1.5" height="28.57" transform="matrix(0.95, -0.33, 0.33, 0.95, -12.86, 4.4)"/><path class="cls-1" d="M51.65,42.63l-.3-1.47C62.18,38.94,63,31.92,63.07,31.62l1.5.15C64.53,32.11,63.62,40.18,51.65,42.63Z"/><rect class="cls-1" x="35.3" y="63.22" width="10.35" height="1.5" transform="translate(-9.83 7.41) rotate(-9.33)"/><path class="cls-1" d="M14.51,69l-.1-.78c-.64-5.19,6.45-9.51,6.76-9.69l.18-.11H44.68v1.5H21.77c-1,.62-5.63,3.8-5.89,7.33l14-2.3.24,1.48Z"/><rect class="cls-1" x="44.5" y="54.93" width="2.5" height="12.95" transform="translate(-9.52 8.41) rotate(-9.52)"/><path class="cls-1" d="M54.39,107.86c3.93-.41,6.31-.61,7.82-5l-4-.37a60.25,60.25,0,0,0,4.78-6,104.61,104.61,0,0,0,6-10.14s-.89,7.81-.89,12-.07,8.4-.07,8.4l-2.8-2.67a15.22,15.22,0,0,1-12.38,9.58"/><polygon class="cls-1" points="54.53 61.8 54.33 60.31 55.07 60.21 54.93 59.24 54.1 59.36 53.88 57.87 56.21 57.54 56.76 61.5 54.53 61.8"/><path class="cls-1" d="M27.54,88.74c-2.08-.1-3.79-1.78-3.81-2.82a.92.92,0,0,1,.86-1l.2,0L25,85a3.17,3.17,0,0,0,3.55-.47A1.3,1.3,0,0,0,28,82.69c-.86-.52-1.8-.77-2.14-.56a16.71,16.71,0,0,0-1.38,1c-1.56,1.16-2,1.48-2.57,1.31l-.17-.08a7,7,0,0,1-3.31-6.08c.23-1.26,1.68-2.53,2.84-3.55a11.1,11.1,0,0,0,1-1,1.5,1.5,0,0,0,.33-1.07,1.48,1.48,0,0,1,.44-1.18c.48-.33,2.59-2.49,3.81-3.78.16-.17,4.11-4.43,7.29-4.81l.41,0,1.32,1.63c1.47-.16,6.19-.39,8.48,2.59.41.6.67.67.72.68L46,69a1.44,1.44,0,0,1-1.1.26A2.66,2.66,0,0,1,43.15,68C41,65.21,35.74,66,35.69,66l-.43.07L34,64.47c-2.15.53-5,3.22-6,4.28-.52.54-3,3.1-3.84,3.82a1,1,0,0,0,0,.18,3,3,0,0,1-.69,2,13,13,0,0,1-1.16,1.1c-.88.78-2.21,2-2.35,2.71a5.55,5.55,0,0,0,2.33,4.32c.34-.21.93-.65,1.34-1,.57-.42,1.1-.82,1.51-1.06,1.29-.78,3.15.24,3.69.57a2.84,2.84,0,0,1,1.07,3.85l-.08.14a4.54,4.54,0,0,1-3.38,1.46h-.09a3.19,3.19,0,0,0,1.3.39Z"/><path class="cls-1" d="M24.3,90.32c-2-2.16-10.41-1.44-13.5-1l-.22-1.49c1.22-.18,12-1.68,14.82,1.46Z"/><path class="cls-1" d="M24.74,90.35l-1-1.08A11,11,0,0,1,28.12,87a16.92,16.92,0,0,1,3.52-.5,7.94,7.94,0,0,0,3.71-.8L36.11,87a9.31,9.31,0,0,1-4.37,1,15.49,15.49,0,0,0-3.22.45A9.59,9.59,0,0,0,24.74,90.35Z"/><path class="cls-1" d="M10,96.39c-1.88-.56-7.39-1.69-7.45-1.7l.3-1.47c.23,0,5.63,1.15,7.58,1.73Z"/><path class="cls-1" d="M54.52,95,53,94.83c.09-.82.16-1.54.22-2.13a13.21,13.21,0,0,1,.25-2c.4-1.31,1.31-2.32,3.75-5l.81-.89a17,17,0,0,0,3.62-6.66,5.1,5.1,0,0,0-1.11-3.68l-.47-.72,1.07-.51a1.49,1.49,0,0,0,.37-.31,22,22,0,0,1-2.88-1.25l-1.15-.58,1.08-.71a1,1,0,0,0,.22-.26,12.28,12.28,0,0,1-3.08-2l-.23-.18c-2.17-2.54-2.27-2.69-2.18-3.16a12.88,12.88,0,0,0-.13-5.84,6,6,0,0,0-2.28-.73l-.34-.06a6,6,0,0,0-2.29.18l-.4-1.44a7.49,7.49,0,0,1,3-.21l.33.06c1.23.24,2.63.51,3.27,1.37l.09.17a14.08,14.08,0,0,1,.31,6.54c.31.42,1.15,1.41,1.72,2.07l.09.06a9.1,9.1,0,0,0,3.2,2l.59.13v.6a2.37,2.37,0,0,1-.28,1.12,11.44,11.44,0,0,0,2.47.92l.82.06-.14.81a2.9,2.9,0,0,1-1.08,1.78,6,6,0,0,1,.9,4.12,18.14,18.14,0,0,1-4,7.37l-.81.9c-2.21,2.44-3.12,3.45-3.43,4.44,0,.15-.11.92-.19,1.74C54.68,93.44,54.61,94.16,54.52,95Z"/><path class="cls-1" d="M50.84,82.37l-1.36-.63a10.46,10.46,0,0,0,.43-1.11,3.46,3.46,0,0,1,.89-1.54,7.54,7.54,0,0,1,2.47-1.88,14.47,14.47,0,0,1-1.66-1.9c-.94-1.1-1.5-3.55-2-5.91a23.09,23.09,0,0,0-.85-3.18,3.23,3.23,0,0,1-1.53-.07l.07.56-1.49.2L44.25,57l.36-.27c.22-.17,2.2-1.6,3.73-.73l.16.09.1.16c.11.18.42.89.92,2.13l-1.4.56c-.24-.62-.54-1.35-.7-1.7a2.7,2.7,0,0,0-1.55.45l.94,6.12h.09v0a1.34,1.34,0,0,0,.48.81,1.72,1.72,0,0,0,1.38.09l.09,0h.09c1.1,0,1.43,1.48,2.1,4.4.45,2,1,4.5,1.73,5.29l.06.08a13,13,0,0,0,1.55,1.77c.64.64.9.9.89,1.33v.32L55,78.1a1.11,1.11,0,0,1-.45.22,5.72,5.72,0,0,0-2.64,1.78,2.13,2.13,0,0,0-.58,1A9.94,9.94,0,0,1,50.84,82.37Z"/><path class="cls-1" d="M15.94,100.66l-.47-.92a8.38,8.38,0,0,0-1.79-2.1l-1.15,1.72-.59-1.11a3.36,3.36,0,0,0-2.17-1.9L10,94.87a4.43,4.43,0,0,1,2.64,1.67l.74-1.1.63.49a13.61,13.61,0,0,1,2.23,2.2,5.45,5.45,0,0,0,.41-.65l.48-.69.5.13.28.07a7.68,7.68,0,0,1,1.63.51l-.64,1.36a4.6,4.6,0,0,0-1.11-.36,7.7,7.7,0,0,1-1.08,1.42Z"/><path class="cls-1" d="M10.81,89.39c-1-1.42-5.53-1.17-8.14-.67l-.28-1.48c.79-.14,7.74-1.38,9.64,1.28Z"/><rect class="cls-1" x="19.39" y="78.57" width="1.5" height="2.28" transform="translate(-61.34 90.64) rotate(-83.46)"/><path class="cls-1" d="M42.27,90.47l.15-1.39c.15-1.4-1.4-3-2-3.48l.94-1.17a8,8,0,0,1,2.39,3.32,9.72,9.72,0,0,0,1.73-3l.27-.78.76.35a5.24,5.24,0,0,0,3.21.22,5.54,5.54,0,0,1-.29-2,7.25,7.25,0,0,0-2.64-5.91L46.2,76l.58-.54a13.86,13.86,0,0,0,1-1.09,24.21,24.21,0,0,1-4.22-4.24l-.4-.51,1.42-1.51,1.09,1-.52.56c1,1.19,2.85,3.24,4,3.76l.81.35-.48.74A9.7,9.7,0,0,1,48.35,76a8.47,8.47,0,0,1,2.57,6.43c0,1,0,1.51.44,1.88l.78.72-.93.49a6.23,6.23,0,0,1-4.6.39,8.18,8.18,0,0,1-3.1,3.88Z"/><path class="cls-1" d="M35.51,90.31l-.55,0-1-.07.37-1A6.9,6.9,0,0,0,34,84.06l1.32-.71A8.49,8.49,0,0,1,36,88.79,3.32,3.32,0,0,0,39,86.85l1.42.49A4.94,4.94,0,0,1,35.51,90.31Z"/><path class="cls-1" d="M43.05,83.21l-.64-1.35a6.62,6.62,0,0,0,1.34-.94,11.43,11.43,0,0,1-2.56-4.21L41,76.1l.57-.31a5.25,5.25,0,0,0,.9-.64A23.52,23.52,0,0,1,39,70.38l1.31-.74c1,1.73,2.7,4.32,3.51,4.69l.79.36-.47.73a5.15,5.15,0,0,1-1.34,1.34c.59,1.37,1.56,3,2.35,3.31l1.06.35-.72.85A7.93,7.93,0,0,1,43.05,83.21Z"/><path class="cls-1" d="M35.53,81.68l-.87-1.23A11.67,11.67,0,0,0,36.33,79,18,18,0,0,1,34,75.16l1.37-.61a14,14,0,0,0,2.43,3.82l.52.42-.37.57A11.18,11.18,0,0,1,35.53,81.68Z"/><path class="cls-1" d="M76,128H0V52H76ZM4,124H72V56H4Z"/><path class="cls-1" d="M34.46,73.69l-1.26-.81c0-.09,1.32-2.11,0-3.14a.87.87,0,0,0-.79-.23c-.7.15-1.36,1.16-1.54,1.51l-1.33-.69A4.53,4.53,0,0,1,32.05,68a2.39,2.39,0,0,1,2,.51C36,70.05,35.18,72.57,34.46,73.69Z"/><path class="cls-1" d="M48.89,106.55l-.75-.35a5.54,5.54,0,0,1-2.68-3.52l-1.81,3.18-3.82-3.13-.35,3.53-.66,0c-1.86.08-3.46-1.47-4.49-2.8l-.23,2.21-.82-.19c-1.81-.4-3.94-2.3-4.92-3.25a16.91,16.91,0,0,1-3,2.32l-.94.48-.14-1s-.49-3.08-3-4c-.07,0-1.29-.62-2.46-1.13l.6-1.37c1.19.51,2.45,1.12,2.45,1.12a6.24,6.24,0,0,1,3.6,4.07,28.64,28.64,0,0,0,2.32-2l.55-.54.53.56a16.19,16.19,0,0,0,3.86,3l.51-4.94L34.46,101c.51,1,2.07,3.26,3.67,3.75l.48-4.91,4.62,3.78L46.38,98l.17,2.48a6.78,6.78,0,0,0,1.53,3.84l2-5.79.81.56a20.78,20.78,0,0,0,2.69,1.57,16.61,16.61,0,0,1-.52-6.48l1.48.21a16.3,16.3,0,0,0,.9,7.16l.44,1.13-1.21-.11a11.6,11.6,0,0,1-3.82-1.71Z"/><polygon class="cls-1" points="25.68 76.36 24.93 73.94 28.4 72.86 28.85 74.29 26.81 74.92 27.11 75.91 25.68 76.36"/><path class="cls-1" d="M50.44,99.7l-2,5.75c-2.41-1.11-2.66-4.93-2.66-4.93l-2.36,4.13-4.22-3.44-.43,4.26c-2.67.1-5-4.21-5-4.21l-.35,3.45c-2.18-.48-5.06-3.55-5.06-3.55s-1.74,1.49-2.76,2.31c1.82,2.64,2.67,6.1,2.06,8-1.15,4.81-4,10.16-6.23,14.39l24.15.07c5.23-8.25,7.12-17.25,8.2-24.41C52.49,100.91,50.44,99.7,50.44,99.7Zm-16,6.26V106a1,1,0,0,0,2,0v-.11l1.35.19a2.37,2.37,0,0,1-4.72,0Zm-4.06,14.86a2.3,2.3,0,0,1-2.36-2.17l1.34-.14v.08a1,1,0,0,0,2,0v-.11l1.35.19A2.32,2.32,0,0,1,30.41,120.82Zm1.67-8a2.31,2.31,0,0,1-2.36-2.17l1.35-.14a.19.19,0,0,0,0,.08,1,1,0,0,0,2,0s0-.07,0-.11l1.35.18A2.32,2.32,0,0,1,32.08,112.78Zm4.67,4.14a2.3,2.3,0,0,1-2.36-2.16l1.35-.15s0,.06,0,.08a1,1,0,0,0,2,0,.34.34,0,0,0,0-.1l1.35.18A2.3,2.3,0,0,1,36.75,116.92Zm2.61-7.27,1.34-.15v.08a1,1,0,0,0,2,0v-.1l1.34.18a2.36,2.36,0,0,1-4.71,0Zm3.21,11.17a2.31,2.31,0,0,1-2.36-2.17l1.35-.14s0,0,0,.08a1,1,0,0,0,2,0,.41.41,0,0,0,0-.11l1.35.19A2.3,2.3,0,0,1,42.57,120.82Zm3.83-4.38A2.3,2.3,0,0,1,44,114.28l1.35-.15v.08a1,1,0,0,0,2,0,.34.34,0,0,0,0-.1l1.35.18A2.3,2.3,0,0,1,46.4,116.44Zm2-8A2.3,2.3,0,0,1,46,106.26l1.34-.14v.07a1,1,0,0,0,2,0v-.1l1.35.18A2.31,2.31,0,0,1,48.38,108.42Z"/><path class="cls-1" d="M62.9,118.19c-5.93-1.15-6.82,1.49-12.42,1.28l-2.3,5.81c0,.33,21.2.13,21.2.13S68.83,119.33,62.9,118.19Zm-8.46,6A2.31,2.31,0,0,1,52.08,122l1.34-.14v.08a1,1,0,0,0,2,0v-.11l1.34.18A2.3,2.3,0,0,1,54.44,124.14Zm7.75,0A2.31,2.31,0,0,1,59.83,122l1.35-.14a.19.19,0,0,0,0,.08,1,1,0,0,0,2,0s0-.07,0-.11l1.35.18A2.3,2.3,0,0,1,62.19,124.14Z"/><path class="cls-1" d="M25,106.43l-2.12.94a8.35,8.35,0,0,0-.69-2.63c-7,.41-11.7,2.63-13.85,6.45-4,7.82,1.35,14.4,1.35,14.4l10.36-.1,3.37-6.57s-4.45-2.19-3.35-5c1.19-2.19,5.65-1.93,5.65-1.93C26.18,110.08,25.86,109,25,106.43ZM12.8,112.09a.19.19,0,0,0,0,.08,1,1,0,0,0,2,0,.37.37,0,0,0,0-.11l1.35.18a2.37,2.37,0,0,1-4.72,0Zm1,12.18a2.3,2.3,0,0,1-2.36-2.17L12.8,122a.25.25,0,0,0,0,.08,1,1,0,0,0,2,0,.34.34,0,0,0,0-.1l1.35.18A2.3,2.3,0,0,1,13.81,124.27Zm2.64-5.09A2.31,2.31,0,0,1,14.09,117l1.35-.15a.22.22,0,0,0,0,.08,1,1,0,0,0,2,0,.41.41,0,0,0,0-.11l1.35.19A2.3,2.3,0,0,1,16.45,119.18Z"/><path class="cls-1" d="M122.78,67.18c0,8.76-6.36,14.89-17.6,14.89a31.5,31.5,0,0,1-14-3.8V64.16h3L96.5,75.48A15.75,15.75,0,0,0,105.1,78c5.51,0,9.15-3.34,9.15-9.31S109.68,60,104.56,57.1C98,53.45,91.76,49,91.76,40.35c0-7.21,5.82-13.26,16.06-13.26a22.14,22.14,0,0,1,11.86,3.57V43h-2.87l-2.48-10.55A10.69,10.69,0,0,0,108,30.58c-4.73,0-7.83,3.26-7.83,8.45,0,5.43,4.65,8.69,9.77,11.63C116,54.08,122.78,57.8,122.78,67.18Z"/><path class="cls-1" d="M173.48,78.42v2.49H154.25V78.42L159.76,77l-4-13.49H138.82l-3.95,13.33,5.66,1.55v2.49h-16V78.42l5.35-1.55,15.89-48.7,7.6-1.08,15.2,50Zm-19-18.92-3.88-13.1-3.1-11.71h-.16L140,59.5Z"/><path class="cls-1" d="M212.72,64.23V80.91H177.51V78.42L183.33,77v-45l-5.82-1.39V28.17H198v2.49l-6.21,1.47V76.64h15.36l2.32-12.41Z"/><path class="cls-1" d="M255.35,30.66l-4.89,1.55-16.21,48.7-5,1.08L212.7,31.82,208,30.66V28.17h20v2.49l-6.2,1.39,8.69,26.52,3.17,11.87h.24l11.71-38.08-6.52-1.7V28.17h16.29Z"/><path class="cls-1" d="M296.57,78.42v2.49H277.34V78.42L282.85,77l-4-13.49h-16.9l-4,13.33,5.66,1.55v2.49H247.56V78.42l5.36-1.55,15.89-48.7,7.6-1.08,15.2,50Zm-19-18.92L273.7,46.4l-3.11-11.71h-.15L263.07,59.5Z"/><path class="cls-1" d="M300.6,78.42,306.42,77v-45l-5.82-1.39V28.17h20.86c13,0,23,6.36,23,25.21,0,17.37-7.91,27.53-22.87,27.53H300.6Zm34.74-24.19c0-15.9-5-22.72-14.11-22.72l-6.36.39V77l6.36.46C330.53,77.49,335.34,69.35,335.34,54.23Z"/><path class="cls-1" d="M350.08,54.93c0-16.67,7.83-27.84,22-27.84,12.72,0,21.4,9.69,21.4,26.91,0,16.82-7.75,28-21.94,28C358.84,82,350.08,72.22,350.08,54.93Zm34.35-.08c0-14.5-4.57-24-12.87-24-7.29,0-12.33,8.38-12.33,23.27,0,14.5,4.5,24,12.79,24C379.39,78.11,384.43,69.82,384.43,54.85Z"/><path class="cls-1" d="M441.17,78.42v2.49H428.06l-6.74-12.72-4.27-9.85a11.13,11.13,0,0,1-1.63.08h-4.11V77l5.74,1.39v2.49H397V78.42L402.86,77v-45L397,30.66V28.17h21.41c9.61,0,16,4.74,16,13.89a15.78,15.78,0,0,1-9.62,14.5L436,77.42Zm-25.28-24c5.73,0,9.92-4.57,9.92-11.86,0-6.44-3.41-10.86-9.54-10.93l-5,.38V54Z"/><path class="cls-1" d="M134.61,97.75v.76c0,.44-.24.68-.76.72h-.28c-.12,0-.28,0-.48,0s-.4,0-.64,0L124.05,126h-1.84l-8.35-24.55a7.3,7.3,0,0,1-.28-1,7.3,7.3,0,0,1-.28,1L104.9,126h-1.8L94.66,99.31c-.24,0-.48,0-.68,0s-.32,0-.44,0h-.28c-.52,0-.8-.28-.8-.72v-.76h7.6v.76c0,.44-.28.68-.8.72h-.32c-.16,0-.4,0-.76,0s-.76,0-1.24,0l6.8,22.2a5.68,5.68,0,0,1,.2.88c.08.36.16.68.2,1,.08-.35.12-.67.2-1s.16-.56.24-.84l8-23.28c0-.16.16-.24.28-.36a.64.64,0,0,1,.48-.16h.56a.85.85,0,0,1,.48.12,1,1,0,0,1,.28.4l8,23.24.24.84c.08.27.12.64.2,1a7,7,0,0,0,.2-.91,7.12,7.12,0,0,1,.2-.88l6.8-22.2c-.48,0-.88,0-1.28,0s-.68,0-.84,0h-.36c-.52,0-.76-.28-.76-.72v-.76h7.56Z"/><path class="cls-1" d="M177.36,117.83a13.15,13.15,0,0,1-2.76,4.56,12,12,0,0,1-4.24,2.91,14.44,14.44,0,0,1-5.52,1,14,14,0,0,1-5.44-1,12.15,12.15,0,0,1-4.28-2.91,13.15,13.15,0,0,1-2.76-4.56,18.14,18.14,0,0,1,0-11.88,13.15,13.15,0,0,1,2.76-4.56,12.28,12.28,0,0,1,4.28-3,14,14,0,0,1,5.44-1,14.44,14.44,0,0,1,5.52,1,12.12,12.12,0,0,1,4.24,3,13.15,13.15,0,0,1,2.76,4.56,18.14,18.14,0,0,1,0,11.88Zm-2-11.28a11.57,11.57,0,0,0-2.32-4,9.94,9.94,0,0,0-3.6-2.52,12.57,12.57,0,0,0-9.24,0,9.94,9.94,0,0,0-3.6,2.52,11.65,11.65,0,0,0-2.36,4,15.82,15.82,0,0,0-.8,5.32,15.66,15.66,0,0,0,.8,5.32,11.65,11.65,0,0,0,2.36,4,9.94,9.94,0,0,0,3.6,2.52,13.27,13.27,0,0,0,9.24,0,9.94,9.94,0,0,0,3.6-2.52,11.57,11.57,0,0,0,2.32-4,15.66,15.66,0,0,0,.8-5.32A15.82,15.82,0,0,0,175.4,106.55Z"/><path class="cls-1" d="M220.7,125.22v.8h-2.8a1.28,1.28,0,0,1-.56-.12,1.23,1.23,0,0,1-.44-.4L207.83,114a2.74,2.74,0,0,0-.72-.64,3,3,0,0,0-1.2-.16h-3.36v11.19c.48,0,.88,0,1.28,0s.68,0,.88,0h.4c.52,0,.8.29.8.72v.8h-8.8v-.8c0-.43.28-.68.8-.72h.4c.2,0,.48,0,.88,0s.84,0,1.32,0V99.31c-.48,0-.92,0-1.32,0s-.68,0-.88,0h-.4c-.52,0-.76-.28-.76-.72v-.76h10.24c3.28,0,5.71.64,7.31,1.88a6.6,6.6,0,0,1,2.4,5.52,7.8,7.8,0,0,1-.56,3,7.26,7.26,0,0,1-1.6,2.36,8.67,8.67,0,0,1-2.52,1.68,10.91,10.91,0,0,1-3.35.84,3.49,3.49,0,0,1,.88.8l8.47,10.67c.24,0,.48,0,.72,0h.8C220.46,124.54,220.7,124.79,220.7,125.22Zm-10.24-14A6.87,6.87,0,0,0,213,110a5.54,5.54,0,0,0,1.6-2,6.22,6.22,0,0,0,.52-2.64,5.19,5.19,0,0,0-2-4.48,9.67,9.67,0,0,0-5.75-1.48h-4.84v12.36h4.56A12.41,12.41,0,0,0,210.46,111.27Z"/><path class="cls-1" d="M265.33,125.22v.8h-8.51v-.8c0-.43.28-.68.8-.72h1.68c.48,0,1,0,1.36,0l-11-11.23c-.16-.16-.28-.24-.4-.36a1.65,1.65,0,0,0-.44-.28,2,2,0,0,0-.52-.16,4.61,4.61,0,0,0-.8,0h-1.84v12c.48,0,.92,0,1.32,0s.68,0,.88,0h.4c.52,0,.76.29.76.72v.8h-8.76v-.8c0-.43.28-.68.8-.72h.36c.2,0,.52,0,.92,0s.8,0,1.28,0V99.27c-.48,0-.88,0-1.28,0s-.72,0-.92,0h-.36c-.52,0-.8-.28-.8-.72v-.76H249v.76c0,.44-.24.68-.76.72h-.4c-.2,0-.48,0-.88,0s-.84,0-1.32,0v11.52h1.68a3.66,3.66,0,0,0,.68,0,1.69,1.69,0,0,0,.48-.12,4.69,4.69,0,0,0,.44-.2,3.62,3.62,0,0,0,.44-.4l10.48-10.76h-1.28c-.48,0-.84,0-1.12,0H257c-.52,0-.8-.28-.8-.72v-.8h8.32v.8c0,.44-.28.68-.8.72h-.24c-.12,0-.28,0-.52,0h-.76l-10.84,11.16a4.82,4.82,0,0,1-.68.64,2,2,0,0,1-.64.36,2.65,2.65,0,0,1,.76.36,3.33,3.33,0,0,1,.68.64l11.52,12c.28,0,.56,0,.8,0h.76C265.06,124.54,265.33,124.79,265.33,125.22Z"/><path class="cls-1" d="M301.8,117.75a9.28,9.28,0,0,1-.6,3.36,7.88,7.88,0,0,1-1.8,2.72,8.61,8.61,0,0,1-2.84,1.84,10.65,10.65,0,0,1-3.84.67,19.31,19.31,0,0,1-7.6-1.55v-6.32h1c.56,0,.84.32.88,1,0,0,0,.28,0,.72s0,1,.08,1.6,0,1.24.08,1.79a13.13,13.13,0,0,0,5.64,1.08,7.88,7.88,0,0,0,3-.48,5.92,5.92,0,0,0,3.6-3.47,7,7,0,0,0,.48-2.6,4.65,4.65,0,0,0-.6-2.48,5.09,5.09,0,0,0-1.6-1.6,10.08,10.08,0,0,0-2.28-1.12l-2.6-.84c-.88-.28-1.8-.6-2.64-1a8.93,8.93,0,0,1-2.24-1.32,6.12,6.12,0,0,1-1.64-2,6.86,6.86,0,0,1-.6-3,7.2,7.2,0,0,1,.52-2.76A7.2,7.2,0,0,1,290.36,98a9.69,9.69,0,0,1,3.52-.6,18.39,18.39,0,0,1,7.28,1.64v5.8h-1c-.56,0-.8-.36-.84-1,0-.2-.08-1.48-.2-3.76a13.36,13.36,0,0,0-5.28-1,8.08,8.08,0,0,0-2.72.44,5.08,5.08,0,0,0-2,1.2,5.3,5.3,0,0,0-1.2,1.76,5.39,5.39,0,0,0-.44,2.08,4.46,4.46,0,0,0,.64,2.4,5.09,5.09,0,0,0,1.6,1.6,12.09,12.09,0,0,0,2.28,1.12c.84.28,1.72.6,2.6.88s1.8.6,2.64,1a10.32,10.32,0,0,1,2.24,1.32,5.8,5.8,0,0,1,2.24,4.88Z"/><path class="cls-1" d="M348.51,99.23c-.2,0-.52,0-.92,0s-.8,0-1.28,0v25.11c.48,0,.88,0,1.28,0s.72,0,.92,0h.36c.51,0,.8.29.8.72v.8h-8.8v-.8c0-.43.28-.68.8-.72H342c.2,0,.52,0,.92,0s.8,0,1.28,0v-12H326.51v12c.48,0,.92,0,1.32,0s.68,0,.88,0h.4c.52,0,.76.29.76.72v.8h-8.8v-.8c0-.43.28-.68.8-.72h.4c.2,0,.48,0,.88,0s.84,0,1.32,0V99.31c-.48,0-.92,0-1.32,0s-.68,0-.88,0h-.4c-.52,0-.8-.28-.8-.72v-.76h8.8v.76c0,.44-.24.68-.76.72h-.4c-.2,0-.48,0-.88,0s-.84,0-1.32,0v11.6h17.72V99.31c-.48,0-.88,0-1.28,0s-.72,0-.92,0h-.36c-.52,0-.8-.28-.8-.72v-.76h8.8v.76c0,.44-.29.68-.8.72Z"/><path class="cls-1" d="M394.26,117.83a13.15,13.15,0,0,1-2.76,4.56,12,12,0,0,1-4.24,2.91,14.44,14.44,0,0,1-5.52,1,14,14,0,0,1-5.44-1,12.15,12.15,0,0,1-4.28-2.91,13.15,13.15,0,0,1-2.76-4.56,18.14,18.14,0,0,1,0-11.88,13.15,13.15,0,0,1,2.76-4.56,12.28,12.28,0,0,1,4.28-3,14,14,0,0,1,5.44-1,14.44,14.44,0,0,1,5.52,1,12.12,12.12,0,0,1,4.24,3,13.15,13.15,0,0,1,2.76,4.56,18.14,18.14,0,0,1,0,11.88Zm-2-11.28a11.57,11.57,0,0,0-2.32-4,9.94,9.94,0,0,0-3.6-2.52,12.57,12.57,0,0,0-9.24,0,9.94,9.94,0,0,0-3.6,2.52,11.65,11.65,0,0,0-2.36,4,15.82,15.82,0,0,0-.8,5.32,15.66,15.66,0,0,0,.8,5.32,11.65,11.65,0,0,0,2.36,4,9.94,9.94,0,0,0,3.6,2.52,13.27,13.27,0,0,0,9.24,0,9.94,9.94,0,0,0,3.6-2.52,11.57,11.57,0,0,0,2.32-4,15.66,15.66,0,0,0,.8-5.32A15.82,15.82,0,0,0,392.3,106.55Z"/><path class="cls-1" d="M434.32,106.15a8,8,0,0,1-.68,3.4,7.26,7.26,0,0,1-2,2.68,9.67,9.67,0,0,1-3.16,1.76,13.62,13.62,0,0,1-4.2.64h-4.84v9.79c.48,0,.88,0,1.28,0s.72,0,.92,0H422c.52,0,.8.29.8.72v.8H414v-.8c0-.43.28-.68.8-.72h.4c.2,0,.48,0,.87,0s.84,0,1.33,0V99.31c-.49,0-.92,0-1.33,0s-.67,0-.87,0h-.4c-.52,0-.8-.28-.8-.72v-.76h10.27c3.32,0,5.84.72,7.52,2.16A7.82,7.82,0,0,1,434.32,106.15Zm-2,0a6.33,6.33,0,0,0-2-5,9,9,0,0,0-6-1.76h-4.84V113h4.84a9.88,9.88,0,0,0,3.36-.52,7.7,7.7,0,0,0,2.52-1.44,6,6,0,0,0,1.56-2.16A6.94,6.94,0,0,0,432.28,106.11Z"/></g></g></svg>